<?xml version="1.0" encoding="utf-8"?>
<!-- Generator: Adobe Illustrator 19.0.0, SVG Export Plug-In . SVG Version: 6.00 Build 0)  -->
<svg version="1.1" id="Layer_1" xmlns="http://www.w3.org/2000/svg" xmlns:xlink="http://www.w3.org/1999/xlink" x="0px" y="0px"
	 viewBox="0 0 115.7 13.5" enable-background="new 0 0 115.7 13.5" xml:space="preserve">
<g>
	<g>
		<path d="M28.3,5h2.2c0,0.8,0.3,0.8,1,0.8h2.7c0.5,0,1-0.1,1-0.6c0-0.6-0.3-0.7-3.2-0.7c-3.4,0-3.8-0.4-3.8-2.2
			c0-1.3,0.1-2.3,3-2.3h3.1c2.6,0,2.8,0.9,2.8,2.2v0.2H35c0-0.5-0.1-0.8-1.1-0.8h-2.5c-0.5,0-0.8,0.2-0.8,0.6c0,0.6,0.3,0.7,2.7,0.6
			c3.5,0,4.3,0.2,4.3,2.3c0,2-0.7,2.3-3.6,2.3h-2.7c-2,0-2.9-0.4-2.9-2V5z"/>
		<path d="M38.9,0.1h2.2v4.2c0,0.9,0.3,1.3,1.3,1.3h2.2c0.9,0,1.3-0.4,1.3-1.3V0.1h2.2v4.7c0,1.8-0.9,2.7-3,2.7h-3.2
			c-2.1,0-3-0.9-3-2.7V0.1z"/>
		<path d="M49.6,0.1h3.4l2.5,4.7l2.5-4.7h3.4v7.3h-2.2V2.1h0l-2.9,5.3h-1.7l-2.9-5.3h0v5.3h-2.2V0.1z"/>
		<path d="M63.1,0.1h3.4l2.5,4.7l2.5-4.7h3.4v7.3h-2.2V2.1h0L70,7.4h-1.7l-2.9-5.3h0v5.3h-2.2V0.1z"/>
		<path d="M76.7,0.1H79v7.3h-2.2V0.1z"/>
		<path d="M80.1,0.1h8.6v1.8h-3.2v5.5h-2.2V1.9h-3.2V0.1z"/>
	</g>
	<g>
		<polygon fill="#B21F24" points="12,6.8 12.9,7.7 7.2,13.3 12.7,13.3 20.5,5.5 28.4,13.3 33.9,13.3 23.3,2.8 23.3,2.8 20.5,0 
			20.5,0 20.5,0 17.8,2.8 17.8,2.8 15.6,4.9 12.1,1.3 0,13.3 5.5,13.3 		"/>
		<polygon fill="#B21F24" points="20.5,13.3 26.7,13.3 23.6,10.2 		"/>
	</g>
	<g>
		<path fill="#414042" d="M93.5,10.4V2.9h1.1v6.8h1.9v0.8H93.5z"/>
		<path fill="#414042" d="M99.1,10.5c-0.4,0-0.7-0.1-1-0.2c-0.3-0.1-0.5-0.3-0.6-0.5c-0.2-0.2-0.3-0.5-0.3-0.8
			c-0.1-0.3-0.1-0.6-0.1-1V5.2c0-0.8,0.2-1.4,0.5-1.8c0.3-0.4,0.8-0.6,1.6-0.6c0.7,0,1.3,0.2,1.6,0.6s0.5,1,0.5,1.8v2.9
			c0,0.8-0.2,1.4-0.5,1.8C100.3,10.3,99.8,10.5,99.1,10.5z M98.6,9.6c0.1,0.1,0.3,0.1,0.5,0.1c0.2,0,0.4,0,0.5-0.1
			c0.1-0.1,0.2-0.2,0.3-0.3s0.1-0.3,0.1-0.4c0-0.2,0-0.3,0-0.6V5c0-0.2,0-0.4,0-0.6c0-0.2-0.1-0.3-0.1-0.4c-0.1-0.1-0.2-0.2-0.3-0.3
			c-0.1-0.1-0.3-0.1-0.5-0.1c-0.2,0-0.4,0-0.5,0.1c-0.1,0.1-0.2,0.2-0.3,0.3c-0.1,0.1-0.1,0.3-0.1,0.4c0,0.2,0,0.3,0,0.6v3.3
			c0,0.2,0,0.4,0,0.6c0,0.2,0.1,0.3,0.1,0.4C98.3,9.4,98.4,9.5,98.6,9.6z"/>
		<path fill="#414042" d="M104,10.5c-0.7,0-1.2-0.2-1.5-0.6C102.2,9.4,102,8.8,102,8V5.4c0-0.3,0-0.6,0.1-0.9c0-0.3,0.1-0.5,0.2-0.7
			c0.1-0.2,0.2-0.4,0.4-0.5c0.2-0.1,0.3-0.2,0.6-0.3c0.2-0.1,0.5-0.1,0.8-0.1c0.7,0,1.2,0.2,1.5,0.5c0.3,0.4,0.5,0.9,0.5,1.7v0.3h-1
			V5.1c0-0.2,0-0.4,0-0.5c0-0.1,0-0.3-0.1-0.4c0-0.1-0.1-0.2-0.2-0.3c-0.1-0.1-0.2-0.1-0.3-0.2c-0.1,0-0.3-0.1-0.4-0.1
			c-0.1,0-0.2,0-0.3,0c-0.1,0-0.2,0.1-0.3,0.1c-0.1,0-0.1,0.1-0.2,0.2s-0.1,0.2-0.1,0.2c0,0.1,0,0.2-0.1,0.3c0,0.1,0,0.2,0,0.3
			c0,0.1,0,0.2,0,0.4v2.8c0,0.6,0.1,1,0.2,1.2c0.1,0.3,0.4,0.4,0.8,0.4c0.4,0,0.7-0.1,0.8-0.4c0.1-0.3,0.2-0.7,0.2-1.3V7.4h-1V6.7
			h1.9v3.7h-0.7l-0.1-0.9C105.1,10.2,104.6,10.5,104,10.5z"/>
		<path fill="#414042" d="M107.2,10.4V2.9h1v7.5H107.2z"/>
		<path fill="#414042" d="M109.5,10.4V2.9h0.7l2.1,5v-5h0.9v7.5h-0.7l-2.2-5.2v5.2H109.5z"/>
	</g>
	<g>
		<path d="M37.4,11.9h1.3c0,0.5,0.2,0.5,0.6,0.5H41c0.3,0,0.6,0,0.6-0.4c0-0.4-0.2-0.4-1.9-0.4c-2,0-2.3-0.2-2.3-1.3
			c0-0.8,0.1-1.4,1.8-1.4H41c1.6,0,1.7,0.5,1.7,1.3v0.1h-1.3c0-0.3,0-0.5-0.7-0.5h-1.5c-0.3,0-0.5,0.1-0.5,0.3
			c0,0.4,0.2,0.4,1.6,0.4c2.1,0,2.6,0.1,2.6,1.4c0,1.2-0.4,1.4-2.2,1.4h-1.6c-1.2,0-1.7-0.2-1.7-1.2V11.9z"/>
		<path d="M43.7,10.5c0-1.3,0.7-1.6,1.9-1.6h2.2c1.2,0,1.9,0.3,1.9,1.6v1.3c0,1.3-0.7,1.6-1.9,1.6h-2.2c-1.2,0-1.9-0.3-1.9-1.6V10.5
			z M45,11.4c0,0.6,0.1,0.9,0.8,0.9h1.7c0.6,0,0.8-0.2,0.8-0.9v-0.5c0-0.5-0.1-0.9-0.8-0.9h-1.6c-0.7,0-0.8,0.3-0.8,0.9V11.4z"/>
		<path d="M50.5,8.9h1.3v3.3h3v1.1h-4.4V8.9z"/>
		<path d="M55.4,8.9h1.3v2.5c0,0.6,0.2,0.8,0.8,0.8h1.3c0.6,0,0.8-0.2,0.8-0.8V8.9H61v2.8c0,1.1-0.6,1.6-1.8,1.6h-1.9
			c-1.2,0-1.8-0.5-1.8-1.6V8.9z"/>
		<path d="M61.6,8.9h5.1V10h-1.9v3.3h-1.3V10h-1.9V8.9z"/>
		<path d="M67.3,8.9h1.3v4.4h-1.3V8.9z"/>
		<path d="M69.6,10.5c0-1.3,0.7-1.6,1.9-1.6h2.2c1.2,0,1.9,0.3,1.9,1.6v1.3c0,1.3-0.7,1.6-1.9,1.6h-2.2c-1.2,0-1.9-0.3-1.9-1.6V10.5
			z M71,11.4c0,0.6,0.1,0.9,0.8,0.9h1.7c0.6,0,0.8-0.2,0.8-0.9v-0.5c0-0.5-0.1-0.9-0.8-0.9h-1.6c-0.7,0-0.8,0.3-0.8,0.9V11.4z"/>
		<path d="M76.4,8.9h2.1l2.5,3.2h0V8.9h1.3v4.4h-2.1l-2.5-3.2h0v3.2h-1.3V8.9z"/>
		<path d="M83.2,11.9h1.3c0,0.5,0.2,0.5,0.6,0.5h1.6c0.3,0,0.6,0,0.6-0.4c0-0.4-0.2-0.4-1.9-0.4c-2,0-2.3-0.2-2.3-1.3
			c0-0.8,0.1-1.4,1.8-1.4h1.9c1.6,0,1.7,0.5,1.7,1.3v0.1h-1.3c0-0.3,0-0.5-0.7-0.5h-1.5c-0.3,0-0.5,0.1-0.5,0.3
			c0,0.4,0.2,0.4,1.6,0.4c2.1,0,2.6,0.1,2.6,1.4c0,1.2-0.4,1.4-2.2,1.4h-1.6c-1.2,0-1.7-0.2-1.7-1.2V11.9z"/>
	</g>
	<g>
		<path fill="#414042" d="M114.7,1.1v11.4H92V1.1H114.7 M115.7,0.1H91v13.4h24.7V0.1L115.7,0.1z"/>
	</g>
</g>
</svg>
