<?xml version="1.0" encoding="utf-8"?>
<!-- Generator: Adobe Illustrator 19.0.0, SVG Export Plug-In . SVG Version: 6.00 Build 0)  -->
<svg version="1.1" id="Layer_1" xmlns="http://www.w3.org/2000/svg" xmlns:xlink="http://www.w3.org/1999/xlink" x="0px" y="0px"
	 viewBox="0 0 421.1 72" enable-background="new 0 0 421.1 72" xml:space="preserve">
<g>
	<path d="M153.1,22.2h10c0,3.5,1.4,3.7,4.3,3.7h12.2c2.1,0,4.3-0.2,4.3-2.7c0-2.8-1.2-3-14-3c-15,0-16.7-1.8-16.7-9.8
		c0-5.9,0.5-10.4,13.1-10.4h13.9c11.5,0,12.6,3.9,12.6,9.6v1h-10c0-2.4-0.3-3.4-4.8-3.4h-11c-2.2,0-3.8,0.8-3.8,2.5
		c0,2.8,1.2,2.9,11.9,2.9c15.5,0,19.1,0.9,19.1,10.4c0,8.8-3,10.2-16.2,10.2h-12.1c-9.1,0-12.7-1.7-12.7-8.8V22.2z"/>
	<path d="M200.3,0.4h10v18.8c0,4.1,1.5,5.7,5.6,5.7h9.9c4.1,0,5.6-1.6,5.6-5.7V0.4h10v20.9c0,8.1-4.2,11.9-13.3,11.9h-14.3
		c-9.2,0-13.3-3.9-13.3-11.9V0.4z"/>
	<path d="M247.9,0.4h15.3l11.3,20.9l11.3-20.9h15.3v32.5h-9.7V9.5h-0.1l-13.1,23.3h-7.5L257.7,9.5h-0.1v23.3h-9.7V0.4z"/>
	<path d="M307.9,0.4h15.3l11.3,20.9l11.3-20.9H361v32.5h-9.7V9.5h-0.1l-13.1,23.3h-7.5L317.6,9.5h-0.1v23.3h-9.7V0.4z"/>
	<path d="M368.3,0.4h10v32.5h-10V0.4z"/>
	<path d="M383.2,0.4h38v8.1h-14v24.4h-10V8.4h-14V0.4z"/>
	<path d="M224.6,39.5h33.9v7.8h-24v6.1h22.9V61h-22.9V72h-10V39.5z"/>
	<path d="M264.6,39.5h10v24.2H297V72h-32.4V39.5z"/>
	<path d="M301.2,39.5h35.6v7.5h-25.6v5.2h24.2V59h-24.2v5.2h26.2V72h-36.1V39.5z"/>
	<path d="M343.4,39.5h35.6v7.5h-25.6v5.2h24.2V59h-24.2v5.2h26.2V72h-36.1V39.5z"/>
	<path d="M383.2,39.5h38v8.1h-14V72h-10V47.6h-14V39.5z"/>
</g>
<g>
	<polygon fill="#B21F24" points="65.2,36.9 69.7,41.4 39,72.2 68.8,72.2 111.1,29.9 153.4,72.2 183.3,72.2 126.1,14.9 126.1,14.9 
		111.1,0 111.1,0 111.1,0 96.2,14.9 96.2,14.9 84.7,26.5 65.2,7 0,72.2 29.9,72.2 	"/>
	<polygon fill="#B21F24" points="111,72.2 144.5,72.2 127.7,55.4 	"/>
</g>
</svg>
